<svg
    width="34"
    height="34"
    viewBox="0 0 34 34"
    fill="none"
    xmlns="http://www.w3.org/2000/svg"
>
<circle cx="17" cy="17" r="16.5" stroke="url(#paint0_linear_1102_7289)" />
<path
        d="M16.9971 18.631L17.8147 18.0552L16.9971 16.8943L16.1795 18.0552L16.9971 18.631ZM13.9201 23V24H14.4389L14.7377 23.5758L13.9201 23ZM12.3051 23L11.4895 22.4214L10.3696 24H12.3051V23ZM16.1641 17.56L16.9797 18.1386L17.3849 17.5674L16.9866 16.9913L16.1641 17.56ZM12.3561 12.052V11.052H10.449L11.5335 12.6207L12.3561 12.052ZM13.9541 12.052L14.7808 11.4893L14.4831 11.052H13.9541V12.052ZM16.9971 16.523L16.1704 17.0857L16.9971 18.3003L17.8238 17.0857L16.9971 16.523ZM20.0401 12.052V11.052H19.511L19.2134 11.4893L20.0401 12.052ZM21.6381 12.052L22.4606 12.6207L23.5452 11.052H21.6381V12.052ZM17.8301 17.56L17.0075 16.9913L16.6093 17.5674L17.0145 18.1386L17.8301 17.56ZM21.6891 23V24H23.6245L22.5047 22.4214L21.6891 23ZM20.0741 23L19.2565 23.5758L19.5552 24H20.0741V23ZM16.1795 18.0552L13.1025 22.4242L14.7377 23.5758L17.8147 19.2068L16.1795 18.0552ZM13.9201 22H12.3051V24H13.9201V22ZM13.1207 23.5786L16.9797 18.1386L15.3485 16.9814L11.4895 22.4214L13.1207 23.5786ZM16.9866 16.9913L13.1786 11.4833L11.5335 12.6207L15.3415 18.1287L16.9866 16.9913ZM12.3561 13.052H13.9541V11.052H12.3561V13.052ZM13.1274 12.6147L16.1704 17.0857L17.8238 15.9603L14.7808 11.4893L13.1274 12.6147ZM17.8238 17.0857L20.8668 12.6147L19.2134 11.4893L16.1704 15.9603L17.8238 17.0857ZM20.0401 13.052H21.6381V11.052H20.0401V13.052ZM20.8155 11.4833L17.0075 16.9913L18.6526 18.1287L22.4606 12.6207L20.8155 11.4833ZM17.0145 18.1386L20.8735 23.5786L22.5047 22.4214L18.6457 16.9814L17.0145 18.1386ZM21.6891 22H20.0741V24H21.6891V22ZM20.8917 22.4242L17.8147 18.0552L16.1795 19.2068L19.2565 23.5758L20.8917 22.4242Z"
        fill="url(#paint1_linear_1102_7289)"
    />
<defs>
<linearGradient
            id="paint0_linear_1102_7289"
            x1="17"
            y1="0"
            x2="17"
            y2="34"
            gradientUnits="userSpaceOnUse"
        >
<stop stop-color="#EC6CA9" />
<stop offset="1" stop-color="#FF5D5D" />
</linearGradient>
<linearGradient
            id="paint1_linear_1102_7289"
            x1="17"
            y1="5"
            x2="17"
            y2="30"
            gradientUnits="userSpaceOnUse"
        >
<stop stop-color="#EC6CA9" />
<stop offset="1" stop-color="#FF5D5D" />
</linearGradient>
</defs>
</svg>
