<svg
    width="38"
    height="40"
    viewBox="0 0 38 40"
    fill="none"
    xmlns="http://www.w3.org/2000/svg"
>
<path
        d="M10.8571 19.9043C10.8571 18.9049 10.047 18.0947 9.04762 18.0947H1.80952C0.810184 18.0947 0 18.9049 0 19.9043C0 20.9036 0.810184 21.7138 1.80952 21.7138H9.04762C10.047 21.7138 10.8571 20.9036 10.8571 19.9043Z"
        fill="url(#paint0_linear_1102_7213)"
    />
<path
        d="M36.1903 18.0947H32.5712C31.5719 18.0947 30.7617 18.9049 30.7617 19.9043C30.7617 20.9036 31.5719 21.7138 32.5712 21.7138H36.1903C37.1896 21.7138 37.9998 20.9036 37.9998 19.9043C37.9998 18.9049 37.1896 18.0947 36.1903 18.0947Z"
        fill="url(#paint1_linear_1102_7213)"
    />
<path
        d="M19.9043 10.8571C20.9036 10.8571 21.7138 10.047 21.7138 9.04762V1.80952C21.7138 0.810184 20.9036 0 19.9043 0C18.9049 0 18.0947 0.810184 18.0947 1.80952V9.04762C18.0947 10.047 18.9049 10.8571 19.9043 10.8571Z"
        fill="url(#paint2_linear_1102_7213)"
    />
<path
        d="M19.9052 28.9521C18.9059 28.9521 18.0957 29.7623 18.0957 30.7617V37.9998C18.0957 38.9991 18.9059 39.8093 19.9052 39.8093C20.9046 39.8093 21.7148 38.9991 21.7148 37.9998V30.7617C21.7148 29.7623 20.9046 28.9521 19.9052 28.9521Z"
        fill="url(#paint3_linear_1102_7213)"
    />
<path
        d="M8.38884 5.82977C7.6824 5.12309 6.53661 5.12321 5.82981 5.82977C5.12313 6.53645 5.12313 7.68212 5.82981 8.3888L10.948 13.5071C11.3013 13.8604 11.7644 14.0372 12.2274 14.0372C12.6904 14.0372 13.1537 13.8604 13.5069 13.5072C14.2136 12.8005 14.2136 11.6549 13.5069 10.9482L8.38884 5.82977Z"
        fill="url(#paint4_linear_1102_7213)"
    />
<path
        d="M28.8615 26.3034C28.1549 25.5968 27.0091 25.5968 26.3024 26.3034C25.5957 27.01 25.5959 28.1557 26.3024 28.8624L31.4207 33.9804C31.7741 34.3338 32.2372 34.5104 32.7003 34.5104C33.1634 34.5104 33.6265 34.3337 33.9798 33.9804C34.6864 33.2738 34.6864 32.1281 33.9798 31.4214L28.8615 26.3034Z"
        fill="url(#paint5_linear_1102_7213)"
    />
<path
        d="M10.9479 26.3025L5.82981 31.4205C5.12313 32.1272 5.12313 33.2729 5.82981 33.9796C6.18315 34.3329 6.64627 34.5095 7.10939 34.5095C7.57251 34.5095 8.03562 34.3329 8.38884 33.9796L13.5069 28.8615C14.2136 28.1548 14.2136 27.0091 13.5069 26.3025C12.8002 25.5958 11.6544 25.5958 10.9479 26.3025Z"
        fill="url(#paint6_linear_1102_7213)"
    />
<defs>
<linearGradient
            id="paint0_linear_1102_7213"
            x1="1.26902"
            y1="20.7185"
            x2="9.94659"
            y2="20.8147"
            gradientUnits="userSpaceOnUse"
        >
<stop stop-color="#EC6CA9" />
<stop offset="1" stop-color="#7B61FF" />
</linearGradient>
<linearGradient
            id="paint1_linear_1102_7213"
            x1="31.6077"
            y1="20.7185"
            x2="37.3932"
            y2="20.7613"
            gradientUnits="userSpaceOnUse"
        >
<stop stop-color="#EC6CA9" />
<stop offset="1" stop-color="#7B61FF" />
</linearGradient>
<linearGradient
            id="paint2_linear_1102_7213"
            x1="18.5177"
            y1="7.87142"
            x2="21.4106"
            y2="7.87498"
            gradientUnits="userSpaceOnUse"
        >
<stop stop-color="#EC6CA9" />
<stop offset="1" stop-color="#7B61FF" />
</linearGradient>
<linearGradient
            id="paint3_linear_1102_7213"
            x1="18.5187"
            y1="36.8236"
            x2="21.4116"
            y2="36.8271"
            gradientUnits="userSpaceOnUse"
        >
<stop stop-color="#EC6CA9" />
<stop offset="1" stop-color="#7B61FF" />
</linearGradient>
<linearGradient
            id="paint4_linear_1102_7213"
            x1="6.32102"
            y1="11.6344"
            x2="13.3049"
            y2="11.6602"
            gradientUnits="userSpaceOnUse"
        >
<stop stop-color="#EC6CA9" />
<stop offset="1" stop-color="#7B61FF" />
</linearGradient>
<linearGradient
            id="paint5_linear_1102_7213"
            x1="26.7937"
            y1="32.1077"
            x2="33.7778"
            y2="32.1335"
            gradientUnits="userSpaceOnUse"
        >
<stop stop-color="#EC6CA9" />
<stop offset="1" stop-color="#7B61FF" />
</linearGradient>
<linearGradient
            id="paint6_linear_1102_7213"
            x1="6.32102"
            y1="32.1068"
            x2="13.3049"
            y2="32.1326"
            gradientUnits="userSpaceOnUse"
        >
<stop stop-color="#EC6CA9" />
<stop offset="1" stop-color="#7B61FF" />
</linearGradient>
</defs>
</svg>
